<?xml version="1.0" encoding="utf-8"?>
<svg xml:space="preserve" viewBox="0 0 100 100" y="0" x="0" xmlns="http://www.w3.org/2000/svg" id="圖層_1" version="1.1"
     width="47px" height="47px"
     style="width:100%;height:100%;background-size:initial;background-repeat-y:initial;background-repeat-x:initial;background-position-y:initial;background-position-x:initial;background-origin:initial;background-image:initial;background-color:rgb(59, 68, 75);background-clip:initial;background-attachment:initial;animation-play-state:paused"><g class="ldl-scale" style="transform-origin:50% 50%;transform:rotate(0deg) scale(0.8, 0.8);animation-play-state:paused" ><path fill="#333" d="M84.515 42.008l-1.827-.055a5.56 5.56 0 0 1-4.971-3.432 5.571 5.571 0 0 1 1.091-5.95l1.246-1.324c1.974-2.096 2.004-5.338.112-7.51a40.432 40.432 0 0 0-3.905-3.905c-2.171-1.892-5.413-1.862-7.509.112l-1.324 1.246a5.57 5.57 0 0 1-5.95 1.091 5.56 5.56 0 0 1-3.432-4.971l-.055-1.827c-.087-2.876-2.353-5.191-5.224-5.389a40.842 40.842 0 0 0-5.535.002c-2.871.199-5.137 2.513-5.224 5.389l-.055 1.827a5.56 5.56 0 0 1-3.432 4.971 5.571 5.571 0 0 1-5.95-1.091l-1.324-1.246c-2.096-1.974-5.338-2.004-7.509-.112a40.206 40.206 0 0 0-3.905 3.905c-1.892 2.171-1.862 5.413.112 7.51l1.246 1.324a5.57 5.57 0 0 1 1.091 5.95 5.56 5.56 0 0 1-4.971 3.432l-1.827.055c-2.876.087-5.191 2.353-5.389 5.224a40.147 40.147 0 0 0 .001 5.534c.199 2.871 2.513 5.137 5.389 5.224l1.827.055a5.56 5.56 0 0 1 4.971 3.432 5.571 5.571 0 0 1-1.091 5.95l-1.246 1.324c-1.974 2.096-2.004 5.338-.112 7.509a40.206 40.206 0 0 0 3.905 3.905c2.171 1.892 5.413 1.862 7.51-.112l1.324-1.246a5.57 5.57 0 0 1 5.95-1.091 5.56 5.56 0 0 1 3.432 4.971l.055 1.827c.087 2.876 2.353 5.191 5.224 5.389a40.147 40.147 0 0 0 5.534-.001c2.871-.199 5.137-2.513 5.224-5.389l.055-1.827a5.56 5.56 0 0 1 3.432-4.971 5.571 5.571 0 0 1 5.95 1.091l1.324 1.246c2.096 1.974 5.338 2.004 7.51.112a40.432 40.432 0 0 0 3.905-3.905c1.892-2.171 1.862-5.413-.112-7.509l-1.246-1.324a5.57 5.57 0 0 1-1.091-5.95 5.56 5.56 0 0 1 4.971-3.432l1.827-.055c2.876-.087 5.191-2.353 5.389-5.224a40.842 40.842 0 0 0-.002-5.535c-.198-2.871-2.513-5.137-5.389-5.224zM50 65c-8.284 0-15-6.716-15-15 0-8.284 6.716-15 15-15s15 6.716 15 15c0 8.284-6.716 15-15 15z" style="fill:rgb(235, 236, 241);animation-play-state:paused" ></path>
<metadata xmlns:d="https://loading.io/stock/" style="animation-play-state:paused"><d:name style="animation-play-state:paused" >gear</d:name>
    <d:tags style="animation-play-state:paused">config,engineer,setup,tool,kit,edit,gear,gear</d:tags>
    <d:license style="animation-play-state:paused">by</d:license>
    <d:slug style="animation-play-state:paused">w7r6nt</d:slug></metadata></g><!-- generated by https://loading.io/ --></svg>